<?xml version="1.0" encoding="UTF-8"?>
<!DOCTYPE svg PUBLIC "-//W3C//DTD SVG 1.1//EN" "http://www.w3.org/Graphics/SVG/1.1/DTD/svg11.dtd">
<!-- Creator: CorelDRAW X7 -->
<svg xmlns="http://www.w3.org/2000/svg" xml:space="preserve" width="50.1126mm" height="32.5432mm" version="1.1" style="shape-rendering:geometricPrecision; text-rendering:geometricPrecision; image-rendering:optimizeQuality; fill-rule:evenodd; clip-rule:evenodd"
viewBox="0 0 414 269"
 xmlns:xlink="http://www.w3.org/1999/xlink">
 <defs>
  <style type="text/css">
   <![CDATA[
    .fil0 {fill:#45B4FC}
   ]]>
  </style>
 </defs>
 <g id="Layer_x0020_1">
  <metadata id="CorelCorpID_0Corel-Layer"/>
  <path class="fil0" d="M0 30l0 208c1,4 1,8 5,14 9,16 23,16 39,16 12,0 219,1 224,0l-8 -7c-5,-6 -15,-18 -17,-26l-210 0 0 -202 287 0 0 55c6,-1 11,-1 17,-1 5,0 10,1 16,1l0 -58c-1,-14 -11,-24 -23,-28l-5 -2c0,0 0,0 0,0l-296 0c-2,1 -4,1 -6,2 -5,1 -11,5 -14,8 -8,9 -7,16 -9,20z"/>
  <path class="fil0" d="M327 182c1,-7 0,-16 0,-23 0,-14 -1,-14 9,-14 4,0 7,-1 8,3 0,4 -1,26 0,34 7,0 15,0 22,0 14,0 15,-2 15,8 0,4 1,7 -3,8 -2,1 -31,0 -34,0 -1,5 0,18 0,23 0,14 1,15 -9,15 -4,0 -7,0 -8,-4 -1,-5 1,-27 0,-34l-34 0c-3,-1 -3,-4 -3,-8 0,-4 -1,-7 3,-8l34 0zm87 14l0 -12c-1,-2 -1,-6 -1,-8 -3,-12 -8,-24 -15,-34 -5,-6 -9,-10 -15,-14 -49,-39 -127,-4 -126,63 0,60 67,99 121,65 2,-1 4,-2 5,-4 7,-5 5,-3 8,-7 22,-20 22,-45 23,-49z"/>
  <path class="fil0" d="M234 209c0,-4 -2,-9 -2,-13 -1,-13 1,-26 6,-39 3,-11 5,-5 -5,-19l-27 -40c-1,-2 -1,-4 -3,-4 -3,0 -3,2 -4,3 -1,2 -2,3 -3,5l-30 44c-8,11 -7,14 -14,5 -2,-3 -4,-6 -6,-9 -14,-21 -13,-24 -20,-14l-42 62c-2,3 -11,15 -11,18 3,2 33,1 40,1l81 0c8,0 33,0 40,0z"/>
  <path class="fil0" d="M92 60c-12,3 -23,15 -21,31 3,13 16,24 32,21 12,-3 23,-15 20,-31 -2,-13 -15,-24 -31,-21z"/>
 </g>
</svg>
